PathFileType	4	(X/Y/Z)	SUBJ32_4_walk_RCNL2025.trc
DataRate	CameraRate	NumFrames	NumMarkers	Units	OrigDataRate	OrigDataStartFrame	OrigNumFrames
100	100	13	25	mm	100	171	273
Frame#	Time	R_Shoulder			L_Shoulder			C7			J_Notch			R_Elbow			L_Elbow			R_Wrist			L_Wrist			R_Asis			L_Asis			Sacral			Thoracic			Sternum			R_Thigh_Lateral			R_Knee_Lateral			R_Shank_Lateral			R_Ankle_Lateral			R_Heel			R_Toe			L_Thigh_Lateral			L_Knee_Lateral			L_Shank_Lateral			L_Ankle_Lateral			L_Heel			L_Toe		
		X1	Y1	Z1	X2	Y2	Z2	X3	Y3	Z3	X4	Y4	Z4	X5	Y5	Z5	X6	Y6	Z6	X7	Y7	Z7	X8	Y8	Z8	X9	Y9	Z9	X10	Y10	Z10	X11	Y11	Z11	X12	Y12	Z12	X13	Y13	Z13	X14	Y14	Z14	X15	Y15	Z15	X16	Y16	Z16	X17	Y17	Z17	X18	Y18	Z18	X19	Y19	Z19	X20	Y20	Z20	X21	Y21	Z21	X22	Y22	Z22	X23	Y23	Z23	X24	Y24	Z24	X25	Y25	Z25
171	1.70000000	288.579987	1354.293945	356.134949	250.545624	1351.716797	-11.996664	258.560455	1434.294678	185.653595	362.948914	1312.164795	167.971313	230.992340	1033.064819	485.089966	98.003700	1063.018188	-86.869461	368.041077	822.972656	486.381363	93.326435	802.438568	-108.610298	304.103363	895.746521	291.989960	309.785522	884.631409	40.995548	110.621834	946.879822	162.102509	126.528954	1211.440430	181.398468	411.288055	1090.419067	169.910980	164.293365	540.420410	348.081421	155.376465	444.011017	298.188568	120.504997	283.645844	357.974976	79.124077	68.326088	231.907318	27.848783	64.040817	177.582123	208.379166	49.357929	202.725922	342.656433	564.865601	-67.081703	373.280487	480.102051	-19.497181	367.980225	260.202026	-46.781269	369.767975	68.206902	39.202309	324.335999	57.756668	93.234200	503.973053	56.918308	51.427345
172	1.71000000	298.625702	1352.976929	355.167603	260.632355	1350.004272	-12.950865	268.090118	1432.652100	184.712830	373.098267	1310.838257	167.153107	242.067169	1031.908081	484.735687	107.884758	1061.206299	-87.110168	380.673645	822.859924	486.146103	102.110741	800.704163	-108.381657	313.668091	894.195374	291.292786	320.426392	882.848877	40.245296	120.855743	945.557068	160.692566	136.746094	1210.010986	180.445938	421.424835	1088.782349	169.376984	170.629028	539.973083	347.540253	160.572159	443.633484	297.604858	123.769913	283.588379	357.333374	79.495132	68.810577	231.402023	28.279434	64.878616	176.964142	208.473129	49.382793	202.560547	351.344910	562.130310	-66.612122	382.372711	477.685577	-18.327990	386.425629	258.004761	-46.548538	401.581238	65.946159	38.418507	357.018188	54.528416	92.725372	536.502563	57.967594	50.253895
173	1.72000000	308.771515	1351.586304	354.130066	270.720184	1348.323242	-13.959148	277.679657	1431.001343	183.723328	383.312500	1309.532715	166.244141	253.105011	1030.706787	484.275330	117.937630	1059.343018	-87.475037	393.074844	822.590820	485.896744	111.363815	798.925964	-108.347305	323.375885	892.665833	290.532562	331.194336	880.987244	39.453087	131.229111	944.200867	159.223999	147.042374	1208.544922	179.427368	431.669708	1087.165161	168.736908	176.996277	539.626038	347.018616	165.817749	443.342896	297.052094	126.948883	283.703125	356.767395	79.899246	69.409454	230.966293	28.725618	65.895447	176.461685	208.594193	49.366848	202.395859	359.293793	559.018494	-66.093048	390.932404	475.027924	-17.173384	404.167725	256.014404	-46.300068	432.429382	64.665451	37.568054	388.779877	52.335110	92.184135	567.944946	59.907726	48.943535
174	1.73000000	319.010742	1350.138062	353.014618	280.822021	1346.696289	-15.029658	287.332489	1429.358521	182.677933	393.595184	1308.271729	165.239304	264.109650	1029.477905	483.705139	128.159027	1057.453491	-87.956947	405.237473	822.171600	485.629120	121.062004	797.115417	-108.491623	333.239380	891.174194	289.725586	342.101105	879.069580	38.640026	141.751114	942.827637	157.705368	157.430481	1207.049316	178.327438	442.036621	1085.596802	167.989075	183.408508	539.390076	346.516022	171.131500	443.148438	296.533264	130.068863	284.009277	356.284760	80.350922	70.148422	230.615448	29.195007	67.109619	176.084534	208.745071	49.306629	202.240845	366.604462	555.565491	-65.532219	399.106598	472.200592	-16.049919	421.286499	254.222244	-46.022942	462.008148	64.244324	36.704327	419.300598	50.950630	91.650948	597.998657	62.856388	47.536102
175	1.74000000	329.332642	1348.653076	351.811920	290.954132	1345.139648	-16.171236	297.051117	1427.735596	181.568909	403.950043	1307.073486	164.134460	275.084747	1028.239014	483.020752	138.548187	1055.559448	-88.552589	417.157333	821.612793	485.334610	131.183876	795.285065	-108.802162	343.272430	889.732056	288.884033	353.161865	877.129883	37.815792	152.428513	941.453674	156.144821	167.923935	1205.528687	177.132233	452.535278	1084.098022	167.133133	189.907074	539.265747	346.035156	176.555771	443.053467	296.056732	133.186584	284.514618	355.896942	80.861351	71.054672	230.374924	29.693411	68.540421	175.852951	208.921951	49.200584	202.104599	373.442780	551.841248	-64.950874	407.105225	469.298676	-14.992823	437.887604	252.624619	-45.717766	490.004486	64.509247	35.903122	448.246552	50.113693	91.185265	626.337952	66.824661	46.103428
176	1.75000000	339.719452	1347.161499	350.510895	301.134064	1343.662354	-17.391975	306.838928	1426.140625	180.387146	414.381378	1305.950806	162.926910	286.033051	1027.007324	482.217285	149.107986	1053.679321	-89.263939	428.832932	820.925934	485.002991	141.714603	793.448242	-109.272820	353.490784	888.346924	288.014709	364.389435	875.209229	36.980598	163.265244	940.093567	154.551544	178.534760	1203.987305	175.832214	463.171844	1082.680298	166.169678	196.555740	539.245361	345.583801	182.149948	443.055023	295.636810	136.383545	285.212799	355.618500	81.438698	72.149895	230.276047	30.225790	70.208801	175.798386	209.120193	49.049660	201.998718	380.048553	547.956238	-64.385353	415.188354	466.434387	-14.054864	454.070740	251.218018	-45.401272	516.107727	65.238724	35.251682	475.277130	49.561306	90.856064	652.633423	71.657303	44.751335
177	1.76000000	350.148834	1345.702148	349.101440	311.379913	1342.265259	-18.698307	316.699738	1424.579712	179.122208	424.893433	1304.910400	161.615616	296.956696	1025.799683	481.290649	159.845261	1051.826416	-90.098160	440.264191	820.119751	484.627594	152.643944	791.615814	-109.902836	363.909698	887.022705	287.119781	375.784119	873.349121	36.131630	174.262894	938.758850	152.936401	189.271317	1202.430176	174.423981	473.951508	1081.346924	165.100739	203.430481	539.314941	345.175446	187.981003	443.143890	295.291382	139.760880	286.080750	355.463593	82.090431	73.446739	230.349197	30.798151	72.137054	175.957123	209.339050	48.862240	201.940369	386.738220	544.062500	-63.886826	423.641724	463.728149	-13.300702	469.900146	249.990204	-45.103230	540.022156	66.175385	34.832077	500.053589	49.066135	90.726273	676.578369	76.994713	43.616497
178	1.77000000	360.602814	1344.311768	347.578583	321.711090	1340.943481	-20.095793	326.636230	1423.057495	177.762878	435.490265	1303.953735	160.201340	307.856964	1024.630859	480.238708	170.770691	1050.008057	-91.065735	451.450882	819.202087	484.206802	163.962875	789.793549	-110.693256	374.540802	885.759338	286.197510	387.331940	871.586853	35.265938	185.422104	937.457275	151.312042	200.138763	1200.864258	172.909637	484.880249	1080.096191	163.929901	210.608307	539.455444	344.826691	194.114990	443.305725	295.036591	143.431046	287.080444	355.442627	82.826973	74.952225	230.618408	31.419495	74.347229	176.360352	209.581711	48.659161	201.950745	393.891022	540.348145	-63.517986	432.740509	461.294128	-12.794932	485.389343	248.913162	-44.858261	561.484009	67.047646	34.702869	522.255615	48.469669	90.833733	697.920105	82.283325	42.852562
179	1.78000000	371.076233	1343.015625	345.944305	332.146851	1339.687012	-21.590616	336.649628	1421.578857	176.297562	446.177429	1303.078735	158.686264	318.732117	1023.513672	479.060577	181.897614	1048.225586	-92.177834	462.392120	818.184174	483.740265	175.662323	787.981812	-111.644333	385.391083	884.552856	285.242706	399.016693	869.955750	34.376328	196.745071	936.192749	149.693161	211.139908	1199.299072	171.294968	495.964905	1078.925293	162.661697	218.158401	539.641724	344.551239	200.612595	443.521881	294.881592	147.502274	288.168915	355.559692	83.662376	76.669914	231.097183	32.103813	76.859512	177.026825	209.852402	48.473217	202.045792	401.910828	537.021484	-63.345627	442.703461	459.220734	-12.586595	500.496490	247.940247	-44.693718	580.286560	67.602890	34.884159	541.612000	47.701321	91.172813	716.491089	86.851822	42.602463
180	1.79000000	381.577728	1341.824341	344.205627	342.703308	1338.484497	-23.189743	346.740936	1420.150269	174.714371	456.961060	1302.282593	157.072647	329.575989	1022.460083	477.755188	193.239380	1046.474487	-93.443787	473.086838	817.079803	483.226944	187.735588	786.176819	-112.755726	396.463135	883.396973	284.247742	410.833649	868.490112	33.447571	208.236374	934.965149	148.095245	222.274368	1197.749512	169.587524	507.211060	1077.834229	161.300323	226.136948	539.843079	344.353180	207.529099	443.767792	294.825226	152.059006	289.311371	355.809357	84.612297	78.597847	231.784760	32.872807	79.692894	177.959351	210.156418	48.340553	202.224472	411.158722	534.284424	-63.428329	453.646179	457.555817	-12.697232	515.128784	247.010300	-44.619602	596.314209	67.650337	35.351189	557.945007	46.780132	91.687622	732.237854	90.042610	42.962463
181	1.80000000	392.124786	1340.738525	342.371704	353.391083	1337.325684	-24.898901	356.911926	1418.783081	173.002274	467.846100	1301.564453	155.361725	340.379639	1021.481567	476.321716	204.807816	1044.746460	-94.869736	483.533737	815.900848	482.666916	200.182022	784.373871	-114.027576	407.754578	882.285583	283.202423	422.793732	867.229614	32.460274	219.899719	933.772705	146.532181	233.537827	1196.238037	167.795151	518.621094	1076.830688	159.848145	234.586060	540.026550	344.221802	214.917236	444.012848	294.853973	157.151657	290.487701	356.173859	85.696442	80.734406	232.665115	33.758911	82.868477	179.142944	210.503769	48.287579	202.467316	421.867920	532.299316	-63.800064	465.549591	456.304291	-13.118623	529.162231	246.062042	-44.627407	609.577209	67.102257	36.041443	571.222473	45.802822	92.287918	745.243286	91.356697	43.951752
182	1.81000000	402.737854	1339.758057	340.451782	364.215515	1336.203247	-26.719738	367.165253	1417.496338	171.153870	478.834747	1300.929321	153.555466	351.134399	1020.590576	474.760101	216.614655	1043.033691	-96.458885	493.729797	814.659271	482.060089	213.006752	782.570465	-115.460026	419.258698	881.216370	282.093994	434.916412	866.220764	31.399916	231.733185	932.617737	145.014313	244.923447	1194.795654	165.926010	530.192993	1075.931396	158.305801	243.537506	540.160645	344.129669	222.830948	444.226593	294.942474	162.803085	291.691650	356.623657	86.945908	83.092751	233.709503	34.808922	86.413887	180.544678	210.909592	48.321228	202.744141	434.075256	531.162048	-64.457710	478.259796	455.438416	-13.820550	542.473572	245.055008	-44.696804	620.231995	65.996025	36.873466	581.596985	44.920361	92.883339	755.733765	90.558655	45.500084
183	1.82000000	413.435211	1338.889771	338.455139	375.179901	1335.115234	-28.648365	377.504395	1416.319214	169.167572	489.925812	1300.390625	151.659821	361.833832	1019.802734	473.070465	228.672424	1041.333984	-98.211906	503.669724	813.372894	481.400696	226.216537	780.768066	-117.051399	430.967438	880.195557	280.909332	447.216949	865.514404	30.264055	243.726227	931.513672	143.548370	256.422516	1193.462769	163.990829	541.919800	1075.162720	156.674332	253.017487	540.220032	344.035095	231.329178	444.386932	295.057068	169.023865	292.929199	357.120758	88.408249	85.706993	234.879349	36.089645	90.367371	182.115646	211.391129	48.427128	203.019714	447.606049	530.891174	-65.363068	491.524841	454.916534	-14.763943	554.972107	243.986572	-44.806072	628.574463	64.484673	37.765125	589.408997	44.301270	93.414108	764.060364	87.710144	47.456478
